<svg width="521" height="256" viewBox="0 0 521 256" fill="none" xmlns="http://www.w3.org/2000/svg">
<path d="M155.305 140L161.129 117.6H170.569L176.393 140H172.489L170.985 134.24H160.713L159.209 140H155.305ZM161.609 130.656H170.089L167.625 121.184H164.073L161.609 130.656ZM189.435 140.64C187.579 140.64 185.958 140.267 184.571 139.52C183.184 138.752 182.118 137.675 181.371 136.288C180.624 134.88 180.251 133.237 180.251 131.36V117.6H184.059V131.36C184.059 133.109 184.55 134.496 185.531 135.52C186.512 136.544 187.814 137.056 189.435 137.056C191.056 137.056 192.358 136.544 193.339 135.52C194.32 134.496 194.811 133.109 194.811 131.36V117.6H198.619V131.36C198.619 133.237 198.246 134.88 197.499 136.288C196.752 137.675 195.686 138.752 194.299 139.52C192.912 140.267 191.291 140.64 189.435 140.64ZM204.41 140V117.6H212.154C214.436 117.6 216.484 118.091 218.298 119.072C220.111 120.053 221.519 121.397 222.522 123.104C223.546 124.811 224.058 126.709 224.058 128.8C224.058 130.891 223.546 132.789 222.522 134.496C221.519 136.203 220.111 137.547 218.298 138.528C216.484 139.509 214.436 140 212.154 140H204.41ZM212.154 136.416C213.754 136.416 215.162 136.096 216.378 135.456C217.594 134.795 218.522 133.899 219.162 132.768C219.823 131.616 220.154 130.293 220.154 128.8C220.154 127.307 219.823 125.995 219.162 124.864C218.522 123.712 217.594 122.816 216.378 122.176C215.162 121.515 213.754 121.184 212.154 121.184H208.218V136.416H212.154ZM228.971 140V117.6H232.779V140H228.971ZM238.72 140V117.6H249.824C251.21 117.6 252.426 117.856 253.472 118.368C254.517 118.88 255.317 119.573 255.872 120.448C256.426 121.323 256.704 122.293 256.704 123.36C256.704 124.619 256.373 125.653 255.712 126.464C255.072 127.253 254.282 127.797 253.344 128.096V128.256C254.517 128.491 255.509 129.056 256.32 129.952C257.152 130.827 257.568 132.021 257.568 133.536C257.568 134.773 257.258 135.883 256.64 136.864C256.021 137.845 255.114 138.613 253.92 139.168C252.746 139.723 251.328 140 249.664 140H238.72ZM249.504 136.48C250.421 136.48 251.189 136.352 251.808 136.096C252.426 135.819 252.885 135.445 253.184 134.976C253.504 134.507 253.664 133.973 253.664 133.376C253.664 132.736 253.504 132.181 253.184 131.712C252.885 131.221 252.426 130.837 251.808 130.56C251.189 130.283 250.421 130.144 249.504 130.144H242.528V136.48H249.504ZM249.44 126.72C250.485 126.72 251.306 126.464 251.904 125.952C252.501 125.419 252.8 124.736 252.8 123.904C252.8 123.093 252.501 122.432 251.904 121.92C251.306 121.387 250.485 121.12 249.44 121.12H242.528V126.72H249.44ZM262.562 140V117.6H266.37V136.416H277.73V140H262.562ZM281.592 140V117.6H297.816V121.184H285.4V126.976H295.416V130.4H285.4V136.416H297.816V140H281.592ZM312.965 140V117.6H318.853L324.933 131.2H326.053L332.165 117.6H338.053V140H334.245V123.264L334.405 121.664H334.213L328.389 134.72H322.629L316.805 121.664H316.613L316.773 123.264V140H312.965ZM354.876 140.64C352.615 140.64 350.567 140.128 348.732 139.104C346.919 138.059 345.49 136.64 344.444 134.848C343.399 133.035 342.876 131.019 342.876 128.8C342.876 126.581 343.399 124.576 344.444 122.784C345.49 120.971 346.919 119.552 348.732 118.528C350.567 117.483 352.615 116.96 354.876 116.96C357.138 116.96 359.175 117.483 360.988 118.528C362.823 119.552 364.263 120.971 365.308 122.784C366.354 124.576 366.876 126.581 366.876 128.8C366.876 131.019 366.354 133.035 365.308 134.848C364.263 136.64 362.823 138.059 360.988 139.104C359.175 140.128 357.138 140.64 354.876 140.64ZM354.876 137.056C356.412 137.056 357.788 136.704 359.004 136C360.22 135.296 361.17 134.325 361.852 133.088C362.535 131.851 362.876 130.421 362.876 128.8C362.876 127.179 362.535 125.749 361.852 124.512C361.17 123.275 360.22 122.304 359.004 121.6C357.788 120.896 356.412 120.544 354.876 120.544C353.34 120.544 351.964 120.896 350.748 121.6C349.532 122.304 348.583 123.275 347.9 124.512C347.218 125.749 346.876 127.179 346.876 128.8C346.876 130.421 347.218 131.851 347.9 133.088C348.583 134.325 349.532 135.296 350.748 136C351.964 136.704 353.34 137.056 354.876 137.056ZM377.215 140V121.184H369.759V117.6H388.479V121.184H381.023V140H377.215ZM392.43 140V117.6H396.238V140H392.43ZM413.123 140.64C410.861 140.64 408.813 140.128 406.979 139.104C405.165 138.059 403.736 136.64 402.691 134.848C401.645 133.035 401.123 131.019 401.123 128.8C401.123 126.581 401.645 124.576 402.691 122.784C403.736 120.971 405.165 119.552 406.979 118.528C408.813 117.483 410.861 116.96 413.123 116.96C415.384 116.96 417.421 117.483 419.235 118.528C421.069 119.552 422.509 120.971 423.555 122.784C424.6 124.576 425.123 126.581 425.123 128.8C425.123 131.019 424.6 133.035 423.555 134.848C422.509 136.64 421.069 138.059 419.235 139.104C417.421 140.128 415.384 140.64 413.123 140.64ZM413.123 137.056C414.659 137.056 416.035 136.704 417.251 136C418.467 135.296 419.416 134.325 420.099 133.088C420.781 131.851 421.123 130.421 421.123 128.8C421.123 127.179 420.781 125.749 420.099 124.512C419.416 123.275 418.467 122.304 417.251 121.6C416.035 120.896 414.659 120.544 413.123 120.544C411.587 120.544 410.211 120.896 408.995 121.6C407.779 122.304 406.829 123.275 406.147 124.512C405.464 125.749 405.123 127.179 405.123 128.8C405.123 130.421 405.464 131.851 406.147 133.088C406.829 134.325 407.779 135.296 408.995 136C410.211 136.704 411.587 137.056 413.123 137.056ZM430.021 140V117.6H435.205L445.125 134.976H445.317L445.125 133.44V117.6H448.965V140H443.781L433.861 122.624H433.669L433.829 124.16V139.968L430.021 140Z" fill="white"/>
</svg>
