<svg width="125" height="95" viewBox="0 0 125 95" fill="none" xmlns="http://www.w3.org/2000/svg">
<path d="M91.1624 93L89.1624 93L89.1624 95H91.1624V93ZM91.1624 2V0H89.1624L89.1624 2L91.1624 2ZM92.4958 93V95H94.4958V93H92.4958ZM92.4958 2H94.4958V0H92.4958V2ZM31.7208 83.3144L29.7208 83.3144L29.7208 85.3144H31.7208V83.3144ZM31.7208 11.6856V9.68564H29.7208L29.7208 11.6856L31.7208 11.6856ZM33.0541 83.3144V85.3144H35.0541L35.0541 83.3144L33.0541 83.3144ZM33.0541 11.6856L35.0541 11.6856L35.0541 9.68564H33.0541V11.6856ZM16.8602 29.4802V27.4802H14.8602L14.8602 29.4802L16.8602 29.4802ZM16.8602 65.5198L14.8602 65.5198L14.8602 67.5198H16.8602V65.5198ZM18.1935 29.4802H20.1935V27.4802H18.1935V29.4802ZM18.1935 65.5198V67.5198H20.1935V65.5198H18.1935ZM2 38.9406V36.9406H0V38.9406H2ZM2 56.0594H0V58.0594H2V56.0594ZM3.33333 38.9406H5.33333V36.9406H3.33333V38.9406ZM3.33333 56.0594V58.0594H5.33333V56.0594H3.33333ZM46.581 29.4802V27.4802H44.581V29.4802H46.581ZM46.581 65.5198H44.581V67.5198H46.581V65.5198ZM47.9143 29.4802L49.9143 29.4802L49.9143 27.4802H47.9143V29.4802ZM47.9143 65.5198V67.5198H49.9143L49.9143 65.5198L47.9143 65.5198ZM61.4416 56.0594H59.4416V58.0594H61.4416V56.0594ZM61.4416 38.9406V36.9406H59.4416V38.9406H61.4416ZM62.7749 56.0594V58.0594H64.7749L64.7749 56.0594L62.7749 56.0594ZM62.7749 38.9406L64.7749 38.9406L64.7749 36.9406H62.7749V38.9406ZM76.3018 24.75V22.75H74.3018L74.3018 24.75L76.3018 24.75ZM76.3018 70.25L74.3018 70.25L74.3018 72.25H76.3018V70.25ZM77.6351 24.75H79.6351V22.75H77.6351V24.75ZM77.6351 70.25V72.25H79.6351V70.25H77.6351ZM106.023 38.9406V36.9406H104.023V38.9406H106.023ZM106.023 56.0594H104.023V58.0594L106.023 58.0594L106.023 56.0594ZM107.356 38.9406H109.356V36.9406H107.356V38.9406ZM107.356 56.0594L107.356 58.0594L109.356 58.0594V56.0594H107.356ZM120.883 75.0419L118.883 75.0419L118.883 77.0419L120.883 77.0419L120.883 75.0419ZM120.883 19.9581V17.9581H118.883L118.883 19.9581L120.883 19.9581ZM122.217 75.0419L122.217 77.0419L124.217 77.0419V75.0419H122.217ZM122.217 19.9581H124.217V17.9581H122.217V19.9581ZM93.1624 93L93.1624 2L89.1624 2L89.1624 93L93.1624 93ZM92.4958 91H91.1624V95H92.4958V91ZM90.4958 2V93H94.4958V2H90.4958ZM91.1624 4H92.4958V0H91.1624V4ZM33.7208 83.3144L33.7208 11.6856L29.7208 11.6856L29.7208 83.3144L33.7208 83.3144ZM33.0541 81.3144H31.7208V85.3144H33.0541V81.3144ZM31.0541 11.6856L31.0541 83.3144L35.0541 83.3144L35.0541 11.6856L31.0541 11.6856ZM31.7208 13.6856H33.0541V9.68564H31.7208V13.6856ZM14.8602 29.4802L14.8602 65.5198L18.8602 65.5198L18.8602 29.4802L14.8602 29.4802ZM18.1935 27.4802H16.8602V31.4802H18.1935V27.4802ZM20.1935 65.5198V29.4802H16.1935V65.5198H20.1935ZM16.8602 67.5198H18.1935V63.5198H16.8602V67.5198ZM0 38.9406V56.0594H4V38.9406H0ZM3.33333 36.9406H2V40.9406H3.33333V36.9406ZM5.33333 56.0594V38.9406H1.33333V56.0594H5.33333ZM2 58.0594H3.33333V54.0594H2V58.0594ZM44.581 29.4802V65.5198H48.581V29.4802H44.581ZM47.9143 27.4802H46.581V31.4802H47.9143V27.4802ZM49.9143 65.5198L49.9143 29.4802L45.9143 29.4802L45.9143 65.5198L49.9143 65.5198ZM46.581 67.5198H47.9143V63.5198H46.581V67.5198ZM63.4416 56.0594V38.9406H59.4416V56.0594H63.4416ZM62.7749 54.0594H61.4416V58.0594H62.7749V54.0594ZM60.7749 38.9406L60.7749 56.0594L64.7749 56.0594L64.7749 38.9406L60.7749 38.9406ZM61.4416 40.9406H62.7749V36.9406H61.4416V40.9406ZM74.3018 24.75L74.3018 70.25L78.3018 70.25L78.3018 24.75L74.3018 24.75ZM77.6351 22.75H76.3018V26.75H77.6351V22.75ZM79.6351 70.25V24.75H75.6351V70.25H79.6351ZM76.3018 72.25H77.6351V68.25H76.3018V72.25ZM104.023 38.9406V56.0594H108.023V38.9406H104.023ZM107.356 36.9406H106.023V40.9406H107.356V36.9406ZM109.356 56.0594V38.9406H105.356V56.0594H109.356ZM106.023 58.0594L107.356 58.0594L107.356 54.0594L106.023 54.0594L106.023 58.0594ZM122.883 75.0419L122.883 19.9581L118.883 19.9581L118.883 75.0419L122.883 75.0419ZM122.217 73.0419L120.883 73.0419L120.883 77.0419L122.217 77.0419L122.217 73.0419ZM120.217 19.9581V75.0419H124.217V19.9581H120.217ZM120.883 21.9581H122.217V17.9581H120.883V21.9581Z" fill="url(#paint0_linear_248_41)"/>
<defs>
<linearGradient id="paint0_linear_248_41" x1="90.7778" y1="1.02546" x2="40.1017" y2="94.4759" gradientUnits="userSpaceOnUse">
<stop stop-color="#38CCED"/>
<stop offset="0.755208" stop-color="#8974C6"/>
</linearGradient>
</defs>
</svg>
