<svg fill="none" height="50" viewBox="0 0 299 50" width="299" xmlns="http://www.w3.org/2000/svg" xmlns:xlink="http://www.w3.org/1999/xlink"><linearGradient id="a" gradientUnits="userSpaceOnUse" x1="46.8483" x2="20.4804" y1=".614737" y2="49.0932"><stop offset="0" stop-color="#38cced"/><stop offset=".755208" stop-color="#8974c6"/></linearGradient><g fill="#fff"><path d="m78.312 33.257 4.368-16.8h7.08l4.368 16.8h-2.928l-1.128-4.32h-7.704l-1.128 4.32zm4.728-7.008h6.36l-1.848-7.104h-2.664z"/><path d="m103.91 33.737c-1.392 0-2.608-.28-3.648-.84-1.0403-.576-1.8403-1.384-2.4003-2.424-.56-1.056-.84-2.288-.84-3.696v-10.32h2.856v10.32c0 1.312.3683 2.352 1.1043 3.12s1.712 1.152 2.928 1.152 2.192-.384 2.928-1.152 1.104-1.808 1.104-3.12v-10.32h2.856v10.32c0 1.408-.28 2.64-.84 3.696-.56 1.04-1.36 1.848-2.4 2.424-1.04.56-2.256.84-3.648.84z"/><path d="m115.141 33.257v-16.8h5.808c1.712 0 3.248.368 4.608 1.104s2.416 1.744 3.168 3.024c.768 1.28 1.152 2.704 1.152 4.272s-.384 2.992-1.152 4.272c-.752 1.28-1.808 2.288-3.168 3.024s-2.896 1.104-4.608 1.104zm5.808-2.688c1.2 0 2.256-.24 3.168-.72.912-.496 1.608-1.168 2.088-2.016.496-.864.744-1.856.744-2.976s-.248-2.104-.744-2.952c-.48-.864-1.176-1.536-2.088-2.016-.912-.496-1.968-.744-3.168-.744h-2.952v11.424z"/><path d="m133.562 33.257v-16.8h2.856v16.8z"/><path d="m140.873 33.257v-16.8h8.328c1.04 0 1.952.192 2.736.576s1.384.904 1.8 1.56.624 1.384.624 2.184c0 .944-.248 1.72-.744 2.328-.48.592-1.072 1-1.776 1.224v.12c.88.176 1.624.6 2.232 1.272.624.656.936 1.552.936 2.688 0 .928-.232 1.76-.696 2.496s-1.144 1.312-2.04 1.728c-.88.416-1.944.624-3.192.624zm8.088-2.64c.688 0 1.264-.096 1.728-.288.464-.208.808-.488 1.032-.84.24-.352.36-.752.36-1.2 0-.48-.12-.896-.36-1.248-.224-.368-.568-.656-1.032-.864s-1.04-.312-1.728-.312h-5.232v4.752zm-.048-7.32c.784 0 1.4-.192 1.848-.576.448-.4.672-.912.672-1.536 0-.608-.224-1.104-.672-1.488-.448-.4-1.064-.6-1.848-.6h-5.184v4.2z"/><path d="m158.755 33.257v-16.8h2.856v14.112h8.52v2.688z"/><path d="m173.028 33.257v-16.8h12.168v2.688h-9.312v4.344h7.512v2.568h-7.512v4.512h9.312v2.688z"/><path d="m196.557 33.257v-16.8h4.416l4.56 10.2h.84l4.584-10.2h4.416v16.8h-2.856v-12.552l.12-1.2h-.144l-4.368 9.792h-4.32l-4.368-9.792h-.144l.12 1.2v12.552z"/><path d="m227.991 33.737c-1.696 0-3.232-.384-4.608-1.152-1.36-.784-2.432-1.848-3.216-3.192-.784-1.36-1.176-2.872-1.176-4.536s.392-3.168 1.176-4.512c.784-1.36 1.856-2.424 3.216-3.192 1.376-.784 2.912-1.176 4.608-1.176s3.224.392 4.584 1.176c1.376.768 2.456 1.832 3.24 3.192.784 1.344 1.176 2.848 1.176 4.512s-.392 3.176-1.176 4.536c-.784 1.344-1.864 2.408-3.24 3.192-1.36.768-2.888 1.152-4.584 1.152zm0-2.688c1.152 0 2.184-.264 3.096-.792s1.624-1.256 2.136-2.184.768-2 .768-3.216-.256-2.288-.768-3.216-1.224-1.656-2.136-2.184-1.944-.792-3.096-.792-2.184.264-3.096.792-1.624 1.256-2.136 2.184-.768 2-.768 3.216.256 2.288.768 3.216 1.224 1.656 2.136 2.184 1.944.792 3.096.792z"/><path d="m244.745 33.257v-14.112h-5.592v-2.688h14.04v2.688h-5.592v14.112z"/><path d="m256.156 33.257v-16.8h2.856v16.8z"/><path d="m271.675 33.737c-1.696 0-3.232-.384-4.608-1.152-1.36-.784-2.432-1.848-3.216-3.192-.784-1.36-1.176-2.872-1.176-4.536s.392-3.168 1.176-4.512c.784-1.36 1.856-2.424 3.216-3.192 1.376-.784 2.912-1.176 4.608-1.176s3.224.392 4.584 1.176c1.376.768 2.456 1.832 3.24 3.192.784 1.344 1.176 2.848 1.176 4.512s-.392 3.176-1.176 4.536c-.784 1.344-1.864 2.408-3.24 3.192-1.36.768-2.888 1.152-4.584 1.152zm0-2.688c1.152 0 2.184-.264 3.096-.792s1.624-1.256 2.136-2.184.768-2 .768-3.216-.256-2.288-.768-3.216-1.224-1.656-2.136-2.184-1.944-.792-3.096-.792-2.184.264-3.096.792-1.624 1.256-2.136 2.184-.768 2-.768 3.216.256 2.288.768 3.216 1.224 1.656 2.136 2.184 1.944.792 3.096.792z"/><path d="m284.349 33.257v-16.8h3.888l7.44 13.032h.144l-.144-1.152v-11.88h2.88v16.8h-3.888l-7.44-13.032h-.144l.12 1.152v11.856z"/></g><path clip-rule="evenodd" d="m46.2617.256958h2.3177v49.000042h-2.3177zm-30.8411 5.031422h2.3177v38.93722l-2.3177-.0001zm46.2616 4.29733h2.3178v30.34249h-2.3178zm-23.1309 2.48919h2.3177v25.3641h-2.3177zm-30.84113 2.4573h2.31773v20.4496h-2.31773zm15.42053 0h2.3178v20.4496h-2.3178zm-23.1307 4.9144h2.31776v10.6208h-2.31776zm30.8411 0h2.3178v10.6208h-2.3178zm23.1308 0h2.3177v10.6208h-2.3177z" fill="url(#a)" fill-rule="evenodd"/></svg>